<svg width="60" height="48" viewBox="0 0 60 48" fill="none" xmlns="http://www.w3.org/2000/svg">
<path d="M56.8358 29.0392C54.7152 36.6424 50.7285 43.3036 45.1908 46.231C44.4706 46.6111 43.7352 46.9337 42.9882 47.1969C39.0373 48.5918 34.7151 48.1066 31.0731 45.5649C29.5274 44.4853 28.1179 43.0587 26.5666 41.9946C25.0152 40.9305 23.2437 40.234 21.5552 40.7593C20.1014 41.2115 18.8748 42.5076 17.6398 43.6622C14.7285 46.3841 11.2278 48.5382 7.78041 47.6033C6.1941 47.1737 4.63205 45.9836 3.89534 43.9943C2.26704 39.5963 5.33796 34.3675 4.71603 29.5038C4.31805 26.3909 2.50032 24.0598 1.37031 21.3127C-0.563597 16.6137 -0.334982 10.3718 1.93251 5.96871C4.20001 1.56561 8.38601 -0.769995 12.224 0.228858C16.9041 1.44738 20.4425 6.93203 24.9933 8.87288C27.8394 10.0856 30.9294 9.72377 33.6476 8.12664C38.0393 5.54552 44.0729 1.58694 49.0152 2.23173C51.6434 2.57481 54.2211 4.19003 55.9558 6.94818C58.1487 10.43 58.8061 15.3732 58.4403 19.9643C58.1892 23.0722 57.6499 26.1223 56.8358 29.0392Z" fill="url(#paint0_linear_116_1366)"/>
<path d="M58.2467 35.053C58.1492 35.0528 58.0521 35.0366 57.9574 35.0046C57.658 34.9026 57.3979 34.6463 57.2303 34.2878C57.0628 33.9294 57.0003 33.4959 57.0558 33.0758C57.1112 32.6558 57.2803 32.2809 57.5286 32.0277C57.7768 31.7744 58.0855 31.662 58.3917 31.7132C58.6978 31.7645 58.9782 31.9757 59.1757 32.3036C59.3732 32.6315 59.4729 33.0514 59.4544 33.4776C59.4359 33.9039 59.3006 34.3042 59.0761 34.597C58.8517 34.8898 58.555 35.0529 58.2467 35.053ZM58.2467 32.457C58.0863 32.4579 57.9316 32.5399 57.8118 32.6877C57.6921 32.8354 57.6155 33.0388 57.5964 33.2593C57.5774 33.4799 57.6172 33.7024 57.7085 33.8851C57.7997 34.0678 57.936 34.198 58.0918 34.2512C58.1819 34.2812 58.2757 34.2845 58.3668 34.2607C58.4579 34.237 58.5444 34.1868 58.6205 34.1134C58.6966 34.0401 58.7607 33.9452 58.8084 33.8351C58.8562 33.7251 58.8866 33.6022 58.8976 33.4747C58.9086 33.3472 58.9 33.2179 58.8723 33.0953C58.8446 32.9728 58.7985 32.8597 58.7371 32.7636C58.6756 32.6674 58.6001 32.5904 58.5156 32.5376C58.431 32.4848 58.3394 32.4573 58.2467 32.457Z" fill="#E7F6FF"/>
<path d="M57.1421 36.8304C57.2109 36.4375 57.0366 36.0418 56.7529 35.9465C56.4692 35.8513 56.1834 36.0925 56.1146 36.4854C56.0458 36.8783 56.2201 37.2741 56.5038 37.3693C56.7875 37.4646 57.0733 37.2233 57.1421 36.8304Z" fill="#E7F6FF"/>
<path d="M2.57498 34.8934C2.25452 34.8837 1.94976 34.6994 1.72685 34.3804C1.50394 34.0615 1.38088 33.6336 1.38438 33.1898C1.38788 32.7459 1.51766 32.3219 1.74555 32.0098C1.97344 31.6976 2.28104 31.5226 2.60157 31.5226C2.92211 31.5226 3.2297 31.6976 3.45759 32.0098C3.68548 32.3219 3.81526 32.7459 3.81876 33.1898C3.82226 33.6336 3.6992 34.0615 3.47629 34.3804C3.25339 34.6994 2.94862 34.8837 2.62816 34.8934H2.57498ZM2.57498 32.2981H2.54745C2.37437 32.3033 2.20976 32.4028 2.08935 32.5751C1.96894 32.7473 1.90246 32.9784 1.90433 33.2181C1.9062 33.4578 1.97629 33.6868 2.09936 33.8554C2.22243 34.024 2.38856 34.1186 2.56168 34.1186C2.7348 34.1186 2.90093 34.024 3.024 33.8554C3.14707 33.6868 3.21715 33.4578 3.21903 33.2181C3.2209 32.9784 3.15442 32.7473 3.03401 32.5751C2.9136 32.4028 2.74899 32.3033 2.57591 32.2981H2.57498Z" fill="#E7F6FF"/>
<path d="M1.70713 37.7222C1.9988 37.7048 2.22505 37.3632 2.21247 36.9593C2.19989 36.5554 1.95324 36.2421 1.66156 36.2595C1.36989 36.277 1.14364 36.6185 1.15622 37.0224C1.1688 37.4263 1.41545 37.7396 1.70713 37.7222Z" fill="#E7F6FF"/>
<path d="M33.0831 7.64079C32.7926 7.64115 32.5116 7.49749 32.291 7.23583C32.0704 6.97416 31.9247 6.61177 31.8804 6.21425C31.836 5.81673 31.8959 5.41035 32.0491 5.06867C32.2024 4.72698 32.439 4.47257 32.7159 4.35148C32.9929 4.23039 33.2921 4.25063 33.5592 4.40852C33.8264 4.56642 34.0439 4.85154 34.1724 5.21228C34.3009 5.57302 34.3319 5.98555 34.2597 6.37519C34.1876 6.76483 34.0171 7.10583 33.7792 7.33648C33.5751 7.53422 33.3321 7.64044 33.0831 7.64079ZM33.0793 5.0461C32.9094 5.04585 32.7459 5.13645 32.623 5.299C32.5001 5.46155 32.4272 5.68351 32.4196 5.91863C32.412 6.15374 32.4701 6.38387 32.582 6.56104C32.6939 6.73821 32.8508 6.84875 33.0201 6.86963C33.1894 6.89051 33.358 6.82012 33.4907 6.67312C33.6234 6.52612 33.7101 6.31385 33.7326 6.08057C33.755 5.84729 33.7117 5.61099 33.6114 5.42092C33.5112 5.23084 33.3619 5.10167 33.1946 5.06031C33.1565 5.05092 33.118 5.04616 33.0793 5.0461Z" fill="#E7F6FF"/>
<path d="M30.6012 7.54863C30.8402 7.31651 30.8981 6.86001 30.7305 6.529C30.5628 6.19799 30.2332 6.11783 29.9942 6.34995C29.7551 6.58206 29.6972 7.03857 29.8649 7.36957C30.0325 7.70058 30.3621 7.78075 30.6012 7.54863Z" fill="#E7F6FF"/>
<path d="M60 16.3242C60 15.6138 59.7962 14.9325 59.4334 14.4301C59.0707 13.9278 58.5787 13.6455 58.0656 13.6455C58.0227 13.6455 57.9802 13.6455 57.9383 13.6514C57.9411 13.5932 57.9425 13.5344 57.9425 13.475C57.9424 13.0943 57.8837 12.7179 57.7704 12.3711C57.657 12.0242 57.4916 11.7148 57.2851 11.4635C57.0786 11.2122 56.8358 11.0247 56.5728 10.9135C56.3099 10.8024 56.0328 10.7701 55.7602 10.8189C55.4875 10.8677 55.2255 10.9964 54.9916 11.1965C54.7577 11.3965 54.5572 11.6634 54.4037 11.9791C54.2501 12.2949 54.1469 12.6524 54.1009 13.0278C54.055 13.4031 54.0673 13.7877 54.1372 14.156C53.9034 13.9212 53.6346 13.7619 53.3505 13.6897C53.0665 13.6176 52.7744 13.6344 52.4956 13.739C52.2169 13.8436 51.9586 14.0333 51.7397 14.2941C51.5208 14.555 51.3469 14.8804 51.2307 15.2465C51.1145 15.6127 51.0589 16.0102 51.0682 16.4099C51.0774 16.8096 51.1511 17.2014 51.2839 17.5565C51.4167 17.9116 51.6053 18.221 51.8358 18.462C52.0662 18.703 52.3327 18.8695 52.6157 18.9493C52.7313 19.3736 52.9227 19.7504 53.1721 20.0443C53.4216 20.3382 53.7208 20.5396 54.0418 20.6296C54.3627 20.7196 54.695 20.6953 55.0073 20.5589C55.3196 20.4225 55.6019 20.1786 55.8275 19.8499C56.0584 20.0913 56.3255 20.2578 56.609 20.3373C56.8925 20.4168 57.1853 20.4073 57.4659 20.3093C57.7464 20.2114 58.0074 20.0275 58.2299 19.7714C58.4523 19.5152 58.6304 19.1932 58.751 18.8291C59.1181 18.6364 59.4342 18.2935 59.6573 17.8461C59.8804 17.3987 59.9999 16.8679 60 16.3242Z" fill="white"/>
<path d="M8.93236 9.88528C8.9326 9.53335 8.88277 9.1848 8.78569 8.85955C8.68862 8.5343 8.54622 8.23873 8.36662 7.98973C8.18702 7.74072 7.97375 7.54317 7.73899 7.40835C7.50424 7.27353 7.2526 7.2041 6.99846 7.20402C6.95553 7.20402 6.91307 7.20401 6.87108 7.20983C6.87388 7.15168 6.87528 7.09289 6.87528 7.03345C6.87523 6.65273 6.81657 6.27641 6.70322 5.92955C6.58987 5.5827 6.42443 5.2733 6.21792 5.02196C6.01142 4.77062 5.7686 4.58313 5.50565 4.47198C5.2427 4.36084 4.96566 4.32858 4.693 4.37738C4.42034 4.42617 4.15832 4.55489 3.92441 4.75496C3.6905 4.95502 3.49008 5.22183 3.3365 5.53761C3.18292 5.85338 3.07971 6.21087 3.03376 6.58623C2.9878 6.96159 3.00016 7.3462 3.07 7.71443C2.83621 7.47964 2.56743 7.32033 2.28337 7.24818C1.99932 7.17602 1.70721 7.19286 1.42846 7.29745C1.14972 7.40204 0.891432 7.59174 0.672543 7.85261C0.453654 8.11348 0.279724 8.43891 0.163517 8.80502C0.047309 9.17113 -0.00822693 9.56863 0.000984295 9.96834C0.0101955 10.3681 0.0839202 10.7598 0.216748 11.1149C0.349576 11.47 0.538135 11.7795 0.76859 12.0205C0.999044 12.2615 1.26555 12.428 1.54853 12.5078C1.66418 12.9317 1.85562 13.3081 2.10493 13.6017C2.35424 13.8953 2.65327 14.0965 2.97403 14.1865C3.29479 14.2765 3.62679 14.2523 3.93896 14.1162C4.25113 13.9802 4.53326 13.7366 4.75895 13.4084C4.98985 13.6498 5.2569 13.8163 5.54044 13.8958C5.82397 13.9753 6.11678 13.9657 6.39728 13.8678C6.6778 13.7698 6.93887 13.586 7.16128 13.3298C7.3837 13.0737 7.56179 12.7517 7.68244 12.3876C8.04944 12.1952 8.36554 11.8529 8.58877 11.406C8.81201 10.959 8.93184 10.4287 8.93236 9.88528Z" fill="white"/>
<path d="M44.5185 48H16.688V47.1601H44.5185C44.5989 47.1601 44.6761 47.2043 44.7329 47.2831C44.7898 47.3619 44.8218 47.4687 44.8218 47.5801C44.8218 47.6914 44.7898 47.7983 44.7329 47.877C44.6761 47.9558 44.5989 48 44.5185 48Z" fill="#426572"/>
<path d="M15.4432 48H13.7417C13.6613 48 13.5841 47.9558 13.5272 47.877C13.4704 47.7983 13.4384 47.6914 13.4384 47.5801C13.4384 47.4687 13.4704 47.3619 13.5272 47.2831C13.5841 47.2043 13.6613 47.1601 13.7417 47.1601H15.4432C15.5237 47.1601 15.6008 47.2043 15.6577 47.2831C15.7146 47.3619 15.7465 47.4687 15.7465 47.5801C15.7465 47.6914 15.7146 47.7983 15.6577 47.877C15.6008 47.9558 15.5237 48 15.4432 48Z" fill="#426572"/>
<path d="M12.6373 48H12.0952C12.0147 48 11.9376 47.9558 11.8807 47.877C11.8239 47.7983 11.7919 47.6914 11.7919 47.5801C11.7919 47.4687 11.8239 47.3619 11.8807 47.2831C11.9376 47.2043 12.0147 47.1601 12.0952 47.1601H12.6373C12.7178 47.1601 12.7949 47.2043 12.8518 47.2831C12.9086 47.3619 12.9406 47.4687 12.9406 47.5801C12.9406 47.6914 12.9086 47.7983 12.8518 47.877C12.7949 47.9558 12.7178 48 12.6373 48Z" fill="#426572"/>
<path d="M54.2771 48H45.7232V47.1601H54.2771C54.3576 47.1601 54.4347 47.2043 54.4916 47.2831C54.5485 47.3619 54.5804 47.4687 54.5804 47.5801C54.5804 47.6914 54.5485 47.7983 54.4916 47.877C54.4347 47.9558 54.3576 48 54.2771 48Z" fill="#426572"/>
<path d="M10.5443 48H1.98991V47.1601H10.5443C10.6248 47.1601 10.7019 47.2043 10.7588 47.2831C10.8157 47.3619 10.8476 47.4687 10.8476 47.5801C10.8476 47.6914 10.8157 47.7983 10.7588 47.877C10.7019 47.9558 10.6248 48 10.5443 48Z" fill="#426572"/>
<path d="M32.9039 34.9852H25.6255C25.3163 34.9852 25.0656 35.3323 25.0656 35.7605V45.4518C25.0656 45.88 25.3163 46.2271 25.6255 46.2271H32.9039C33.2131 46.2271 33.4638 45.88 33.4638 45.4518V35.7605C33.4638 35.3323 33.2131 34.9852 32.9039 34.9852Z" fill="#E8EDF7"/>
<path d="M25.0656 39.637H33.4638V43.1905H25.0656V39.637Z" fill="#C1CEDE"/>
<path d="M32.7877 46.744H25.5093C25.2866 46.744 25.073 46.6215 24.9155 46.4034C24.758 46.1853 24.6695 45.8895 24.6695 45.581V35.8897C24.6695 35.5813 24.758 35.2855 24.9155 35.0674C25.073 34.8493 25.2866 34.7267 25.5093 34.7267H32.7877C33.0105 34.7267 33.2241 34.8493 33.3816 35.0674C33.5391 35.2855 33.6275 35.5813 33.6275 35.8897V45.581C33.6275 45.8895 33.5391 46.1853 33.3816 46.4034C33.2241 46.6215 33.0105 46.744 32.7877 46.744ZM25.5093 35.5021C25.4351 35.5021 25.3639 35.5429 25.3114 35.6156C25.2589 35.6883 25.2294 35.7869 25.2294 35.8897V45.581C25.2294 45.6838 25.2589 45.7824 25.3114 45.8551C25.3639 45.9278 25.4351 45.9687 25.5093 45.9687H32.7877C32.862 45.9687 32.9332 45.9278 32.9857 45.8551C33.0382 45.7824 33.0677 45.6838 33.0677 45.581V35.8897C33.0677 35.7869 33.0382 35.6883 32.9857 35.6156C32.9332 35.5429 32.862 35.5021 32.7877 35.5021H25.5093Z" fill="#426572"/>
<path d="M50.5166 8.30043V38.1497C50.5166 38.8621 50.3465 39.5544 50.0329 40.119C49.7192 40.6836 49.2796 41.0888 48.7824 41.2716C48.5877 41.3427 48.3871 41.3786 48.1857 41.3782H10.3908C9.77214 41.3782 9.17878 41.0379 8.74129 40.4321C8.3038 39.8262 8.05802 39.0046 8.05802 38.1478V8.2985C8.05735 7.70178 8.17657 7.11658 8.40235 6.60833C8.43174 6.54372 8.463 6.47911 8.49566 6.4145C8.75262 5.91896 9.10555 5.53415 9.5137 5.30452C9.7915 5.1481 10.0886 5.06801 10.3885 5.0687H48.1824C48.489 5.06844 48.7925 5.15186 49.0758 5.31417C49.3591 5.47648 49.6164 5.71451 49.8332 6.01465C50.05 6.31478 50.2219 6.67114 50.3392 7.06335C50.4565 7.45556 50.5168 7.87594 50.5166 8.30043Z" fill="#E8EDF7"/>
<path d="M47.9053 41.8983H10.1137C9.42075 41.8983 8.75619 41.5172 8.26621 40.8386C7.77622 40.1601 7.50095 39.2398 7.50095 38.2802V8.43096C7.50024 7.51699 7.75041 6.63681 8.20079 5.96871C8.23065 5.92349 8.26424 5.87632 8.3053 5.82141C8.79101 5.17369 9.4394 4.81255 10.1137 4.81415H47.9053C48.5982 4.81415 49.2628 5.19534 49.7528 5.87387C50.2428 6.55239 50.518 7.47267 50.518 8.43225V38.2815C50.5184 38.7568 50.4511 39.2275 50.3199 39.6667C50.1887 40.1059 49.9963 40.505 49.7536 40.8411C49.5109 41.1771 49.2227 41.4436 48.9056 41.6253C48.5884 41.8069 48.2485 41.9001 47.9053 41.8996V41.8983ZM10.1137 5.58817C9.58384 5.58679 9.07436 5.87085 8.69302 6.38027C8.66082 6.42291 8.63516 6.45909 8.6123 6.49334C8.25764 7.01912 8.0608 7.71212 8.06176 8.4316V38.2809C8.06176 39.0348 8.27804 39.7579 8.66303 40.291C9.04802 40.8242 9.57018 41.1237 10.1146 41.1237H47.9062C48.1759 41.1242 48.443 41.051 48.6923 40.9083C48.9415 40.7656 49.1679 40.5563 49.3586 40.2922C49.5493 40.0281 49.7006 39.7145 49.8036 39.3694C49.9066 39.0243 49.9595 38.6544 49.9591 38.2809V8.4316C49.9591 7.67765 49.7428 6.95457 49.3578 6.42145C48.9728 5.88832 48.4507 5.58881 47.9062 5.58881L10.1137 5.58817Z" fill="#426572"/>
<path d="M48.768 34.3391V37.6425C48.7678 38.1543 48.621 38.6451 48.3596 39.007C48.0983 39.3688 47.7439 39.5722 47.3743 39.5724H10.5504C10.1808 39.5724 9.82631 39.3691 9.56496 39.0072C9.3036 38.6452 9.15678 38.1544 9.15678 37.6425V34.3391H9.97466V34.4683H47.9501V34.3391H48.768Z" fill="#E8EDF7"/>
<path d="M9.27202 34.2099H48.7899V35.3728H9.27202V34.2099Z" fill="#C1CEDE"/>
<path d="M9.36673 33.9514H48.7446V34.7268H9.36673V33.9514Z" fill="#426572"/>
<path d="M14.4509 14.1811H43.751V11.4559L43.1911 10.4338H17.5302H15.0107L14.0776 11.4559V14.1811H14.4509Z" fill="#E2F2FF"/>
<path d="M43.1911 32.2716H14.6375C14.4148 32.2716 14.2011 32.1491 14.0437 31.931C13.8862 31.7129 13.7977 31.4171 13.7977 31.1087V11.2091C13.7977 10.9007 13.8862 10.6049 14.0437 10.3868C14.2011 10.1687 14.4148 10.0462 14.6375 10.0462H43.1911C43.4139 10.0462 43.6275 10.1687 43.785 10.3868C43.9425 10.6049 44.0309 10.9007 44.0309 11.2091V31.1087C44.0309 31.4171 43.9425 31.7129 43.785 31.931C43.6275 32.1491 43.4139 32.2716 43.1911 32.2716ZM14.6375 10.8215C14.5632 10.8215 14.492 10.8623 14.4395 10.935C14.387 11.0077 14.3576 11.1063 14.3576 11.2091V31.1087C14.3576 31.2115 14.387 31.3101 14.4395 31.3828C14.492 31.4555 14.5632 31.4963 14.6375 31.4963H43.1911C43.2654 31.4963 43.3366 31.4555 43.3891 31.3828C43.4416 31.3101 43.4711 31.2115 43.4711 31.1087V11.2091C43.4711 11.1063 43.4416 11.0077 43.3891 10.935C43.3366 10.8623 43.2654 10.8215 43.1911 10.8215H14.6375Z" fill="#426572"/>
<path d="M35.9216 44.8703H22.3129C22.0037 44.8703 21.753 45.2174 21.753 45.6456V46.4856C21.753 46.9137 22.0037 47.2609 22.3129 47.2609H35.9216C36.2308 47.2609 36.4815 46.9137 36.4815 46.4856V45.6456C36.4815 45.2174 36.2308 44.8703 35.9216 44.8703Z" fill="#E8EDF7"/>
<path d="M15.781 12.9697C15.9872 12.9697 16.1543 12.7383 16.1543 12.4528C16.1543 12.1674 15.9872 11.936 15.781 11.936C15.5749 11.936 15.4078 12.1674 15.4078 12.4528C15.4078 12.7383 15.5749 12.9697 15.781 12.9697Z" fill="#CADCE8"/>
<path d="M16.9008 12.9697C17.1069 12.9697 17.274 12.7383 17.274 12.4528C17.274 12.1674 17.1069 11.936 16.9008 11.936C16.6946 11.936 16.5275 12.1674 16.5275 12.4528C16.5275 12.7383 16.6946 12.9697 16.9008 12.9697Z" fill="#CADCE8"/>
<path d="M18.0205 12.9697C18.2267 12.9697 18.3938 12.7383 18.3938 12.4528C18.3938 12.1674 18.2267 11.936 18.0205 11.936C17.8144 11.936 17.6473 12.1674 17.6473 12.4528C17.6473 12.7383 17.8144 12.9697 18.0205 12.9697Z" fill="#CADCE8"/>
<path d="M42.3051 11.936H19.5835C19.416 11.936 19.2803 12.124 19.2803 12.3559V12.5498C19.2803 12.7817 19.416 12.9697 19.5835 12.9697H42.3051C42.4726 12.9697 42.6084 12.7817 42.6084 12.5498V12.3559C42.6084 12.124 42.4726 11.936 42.3051 11.936Z" fill="#CADCE8"/>
<path d="M23.3375 25.4877H16.4879C16.1787 25.4877 15.928 25.8348 15.928 26.263V28.7828C15.928 29.2109 16.1787 29.5581 16.4879 29.5581H23.3375C23.6467 29.5581 23.8974 29.2109 23.8974 28.7828V26.263C23.8974 25.8348 23.6467 25.4877 23.3375 25.4877Z" fill="#A8EF9E"/>
<path d="M23.2376 30.0103H16.3876C16.1648 30.0103 15.9512 29.8878 15.7937 29.6697C15.6362 29.4516 15.5478 29.1558 15.5478 28.8473V26.3276C15.5478 26.0192 15.6362 25.7234 15.7937 25.5053C15.9512 25.2872 16.1648 25.1646 16.3876 25.1646H23.2376C23.4604 25.1646 23.674 25.2872 23.8315 25.5053C23.989 25.7234 24.0775 26.0192 24.0775 26.3276V28.8473C24.0775 29.1558 23.989 29.4516 23.8315 29.6697C23.674 29.8878 23.4604 30.0103 23.2376 30.0103ZM16.388 25.9399C16.3138 25.9399 16.2426 25.9808 16.1901 26.0535C16.1376 26.1262 16.1081 26.2248 16.1081 26.3276V28.8473C16.1081 28.9502 16.1376 29.0488 16.1901 29.1215C16.2426 29.1942 16.3138 29.235 16.388 29.235H23.2376C23.3119 29.235 23.3831 29.1942 23.4356 29.1215C23.4881 29.0488 23.5176 28.9502 23.5176 28.8473V26.3276C23.5176 26.2248 23.4881 26.1262 23.4356 26.0535C23.3831 25.9808 23.3119 25.9399 23.2376 25.9399H16.388Z" fill="#426572"/>
<path d="M32.4597 25.4877H25.6101C25.3009 25.4877 25.0502 25.8348 25.0502 26.263V28.7828C25.0502 29.2109 25.3009 29.5581 25.6101 29.5581H32.4597C32.7689 29.5581 33.0196 29.2109 33.0196 28.7828V26.263C33.0196 25.8348 32.7689 25.4877 32.4597 25.4877Z" fill="#A8EF9E"/>
<path d="M32.3599 30.0103H25.5098C25.2871 30.0103 25.0735 29.8878 24.916 29.6697C24.7585 29.4516 24.67 29.1558 24.67 28.8473V26.3276C24.67 26.0192 24.7585 25.7234 24.916 25.5053C25.0735 25.2872 25.2871 25.1646 25.5098 25.1646H32.3599C32.5826 25.1646 32.7962 25.2872 32.9537 25.5053C33.1112 25.7234 33.1997 26.0192 33.1997 26.3276V28.8473C33.1997 29.1558 33.1112 29.4516 32.9537 29.6697C32.7962 29.8878 32.5826 30.0103 32.3599 30.0103ZM25.5103 25.9399C25.436 25.9399 25.3648 25.9808 25.3123 26.0535C25.2598 26.1262 25.2303 26.2248 25.2303 26.3276V28.8473C25.2303 28.9502 25.2598 29.0488 25.3123 29.1215C25.3648 29.1942 25.436 29.235 25.5103 29.235H32.3599C32.4341 29.235 32.5053 29.1942 32.5578 29.1215C32.6103 29.0488 32.6398 28.9502 32.6398 28.8473V26.3276C32.6398 26.2248 32.6103 26.1262 32.5578 26.0535C32.5053 25.9808 32.4341 25.9399 32.3599 25.9399H25.5103Z" fill="#426572"/>
<path d="M41.582 25.4877H34.7323C34.4231 25.4877 34.1725 25.8348 34.1725 26.263V28.7828C34.1725 29.2109 34.4231 29.5581 34.7323 29.5581H41.582C41.8912 29.5581 42.1418 29.2109 42.1418 28.7828V26.263C42.1418 25.8348 41.8912 25.4877 41.582 25.4877Z" fill="#A8EF9E"/>
<path d="M47.4672 39.9601H10.6437C10.2 39.9594 9.77461 39.715 9.46087 39.2806C9.14712 38.8461 8.97064 38.257 8.97015 37.6426V8.93944C8.97064 8.325 9.14712 7.73593 9.46087 7.30146C9.77461 6.86699 10.2 6.6226 10.6437 6.62192H47.4672C47.9109 6.6226 48.3363 6.86699 48.65 7.30146C48.9638 7.73593 49.1403 8.325 49.1407 8.93944V37.6419C49.1404 38.2565 48.9639 38.8457 48.6502 39.2803C48.3364 39.7149 47.911 39.9594 47.4672 39.9601ZM10.6437 7.39722C10.3485 7.39774 10.0654 7.56038 9.85662 7.84949C9.64785 8.1386 9.53039 8.53057 9.53002 8.93944V37.6419C9.53039 38.0508 9.64785 38.4428 9.85662 38.7319C10.0654 39.021 10.3485 39.1836 10.6437 39.1841H47.4672C47.7624 39.1836 48.0455 39.021 48.2543 38.7319C48.463 38.4428 48.5805 38.0508 48.5809 37.6419V8.93944C48.5805 8.53057 48.463 8.1386 48.2543 7.84949C48.0455 7.56038 47.7624 7.39774 47.4672 7.39722H10.6437Z" fill="#426572"/>
<path opacity="0.1" d="M5.18446 12.4302C5.25752 12.4773 5.33716 12.5015 5.41774 12.5013H5.18446V12.4302Z" fill="#606060"/>
<path opacity="0.2" d="M18.4871 5.07129V12.9697C18.4871 13.1753 18.4281 13.3725 18.3231 13.5179C18.2181 13.6633 18.0757 13.745 17.9272 13.745H7.77995V12.3236H5.18446V3.32685C5.18446 3.12123 5.24344 2.92402 5.34844 2.77863C5.45344 2.63323 5.59584 2.55154 5.74433 2.55154H17.1807V5.07129H18.4871Z" fill="#606060"/>
<path d="M4.43796 12.1776H16.6152C16.9245 12.1776 17.1751 11.8305 17.1751 11.4023V1.90481C17.1751 1.47661 16.9245 1.1295 16.6152 1.1295H4.43796C4.12875 1.1295 3.87808 1.47661 3.87808 1.90481V11.4023C3.87808 11.8305 4.12875 12.1776 4.43796 12.1776Z" fill="white"/>
<path d="M8.4504 11.2414H17.0818V11.9521H8.4504V11.2414Z" fill="#DEE6F1"/>
<path d="M3.977 11.4837V1.98621C3.977 1.78059 4.03598 1.58339 4.14098 1.43799C4.24598 1.29259 4.38838 1.21091 4.53687 1.21091H8.49706V12.259H4.53687C4.38838 12.259 4.24598 12.1773 4.14098 12.0319C4.03598 11.8865 3.977 11.6893 3.977 11.4837Z" fill="#E8837E"/>
<path d="M5.18446 12.4302C5.25753 12.4773 5.33717 12.5015 5.41775 12.5013H4.62459C4.54815 12.5012 4.47253 12.4794 4.4024 12.4373C4.33227 12.3952 4.26911 12.3336 4.21681 12.2564C4.17209 12.1901 4.13595 12.1136 4.10997 12.0303C4.10145 12.0026 4.09398 11.9744 4.08757 11.9457C4.07235 11.8743 4.06465 11.8004 4.06471 11.726V2.22849C4.06471 2.02287 4.1237 1.82567 4.2287 1.68027C4.33369 1.53487 4.4761 1.45319 4.62459 1.45319H5.41775C5.26926 1.45319 5.12685 1.53487 5.02185 1.68027C4.91686 1.82567 4.85787 2.02287 4.85787 2.22849V11.726C4.85772 11.8885 4.8948 12.0468 4.96378 12.1783C4.97793 12.2067 4.99352 12.2337 5.01044 12.259C5.02627 12.2817 5.04294 12.3033 5.06036 12.3236C5.09811 12.3667 5.13985 12.4025 5.18446 12.4302Z" fill="#D66765"/>
<path d="M16.6208 12.7113H4.44356C4.3258 12.7115 4.20937 12.6769 4.10203 12.6099C3.9538 12.5185 3.82786 12.3696 3.73943 12.1812C3.651 11.9928 3.60387 11.773 3.60374 11.5483V2.05083C3.60419 1.81845 3.65456 1.59151 3.74844 1.3989C3.84233 1.2063 3.97549 1.05674 4.13096 0.969279L4.17762 0.936974H4.19535C4.2754 0.902462 4.35878 0.885033 4.44262 0.885287H16.6199C16.8221 0.886426 17.0173 0.9881 17.1699 1.17179C17.3225 1.35548 17.4224 1.60897 17.4513 1.88608C17.457 1.93978 17.4598 1.99398 17.4597 2.04825V11.5457C17.46 11.7875 17.4053 12.0233 17.3034 12.2196C17.2262 12.371 17.1239 12.4945 17.0052 12.5801C16.8865 12.6656 16.7547 12.7106 16.6208 12.7113ZM4.30359 1.71486C4.26101 1.74891 4.22565 1.79789 4.20108 1.85686C4.17651 1.91584 4.16359 1.98274 4.16362 2.05083V11.5483C4.16371 11.6234 4.17955 11.6968 4.2092 11.7597C4.23885 11.8225 4.28104 11.8721 4.33065 11.9024C4.36612 11.9247 4.40462 11.9361 4.44356 11.936H16.6208C16.6655 11.9358 16.7095 11.9207 16.7491 11.8922C16.7887 11.8637 16.8228 11.8224 16.8485 11.7719C16.8825 11.7068 16.9007 11.6286 16.9008 11.5483V2.05083C16.9008 2.03375 16.8998 2.01669 16.898 1.99979C16.8891 1.90672 16.856 1.8213 16.8051 1.7594C16.7541 1.69749 16.6886 1.6633 16.6208 1.66318H4.44356C4.41291 1.66291 4.38246 1.6699 4.35351 1.68385L4.30359 1.71486Z" fill="#426572"/>
<path d="M8.12381 1.38858H8.68369V12.2429H8.12381V1.38858Z" fill="#426572"/>
<path d="M11.6025 15.4606C11.4589 15.4606 11.3113 15.4327 11.1597 15.3768C11.0081 15.321 10.8805 15.2452 10.7768 15.1495C10.6731 15.0537 10.6212 14.942 10.6212 14.8144C10.6212 14.7905 10.6252 14.7506 10.6332 14.6947L12.9427 7.16805C12.9985 6.99255 13.1221 6.86092 13.3136 6.77317C13.513 6.68542 13.7244 6.64154 13.9478 6.64154C14.1792 6.64154 14.3906 6.68542 14.582 6.77317C14.7735 6.86092 14.8971 6.99255 14.953 7.16805L17.2624 14.6947C17.2784 14.7506 17.2864 14.7905 17.2864 14.8144C17.2864 14.9341 17.2305 15.0457 17.1188 15.1495C17.0151 15.2452 16.8875 15.321 16.7359 15.3768C16.5843 15.4327 16.4368 15.4606 16.2932 15.4606C16.1655 15.4606 16.0538 15.4406 15.9581 15.4007C15.8704 15.3529 15.8105 15.2691 15.7786 15.1495L15.3239 13.558H12.5717L12.129 15.1495C12.0971 15.2691 12.0332 15.3529 11.9375 15.4007C11.8418 15.4406 11.7301 15.4606 11.6025 15.4606ZM12.9068 12.3374H14.9889L13.9478 8.66382L12.9068 12.3374ZM11.9136 30.4606C11.7062 30.4606 11.5386 30.4127 11.411 30.317C11.2913 30.2212 11.2315 30.1056 11.2315 29.97V22.204C11.2315 22.0683 11.2913 21.9527 11.411 21.8569C11.5386 21.7612 11.7062 21.7133 11.9136 21.7133H14.0316C14.5661 21.7133 15.0447 21.8051 15.4675 21.9886C15.8903 22.1641 16.2254 22.4552 16.4727 22.8621C16.7279 23.261 16.8556 23.7954 16.8556 24.4655V27.7084C16.8556 28.3785 16.7279 28.9169 16.4727 29.3238C16.2254 29.7227 15.8903 30.0138 15.4675 30.1973C15.0447 30.3728 14.5661 30.4606 14.0316 30.4606H11.9136ZM12.7871 29.0964H14.0316C14.4304 29.0964 14.7416 28.9848 14.9649 28.7614C15.1883 28.53 15.3 28.179 15.3 27.7084V24.4655C15.3 23.9949 15.1883 23.6479 14.9649 23.4245C14.7416 23.1932 14.4344 23.0775 14.0435 23.0775H12.7871V29.0964Z" fill="#426572"/>
<path d="M46.0087 27.5422V43.5568C46.0087 43.985 46.2594 44.3322 46.5686 44.3322H53.0594C53.3686 44.3322 53.6193 43.985 53.6193 43.5568V27.5422C53.6193 27.1141 53.3686 26.7669 53.0594 26.7669H46.5686C46.2594 26.7669 46.0087 27.1141 46.0087 27.5422Z" fill="white"/>
<path d="M53.6193 27.8414V43.6886C53.6188 43.9156 53.5536 44.1331 53.4379 44.2939C53.3223 44.4547 53.1654 44.5458 53.0015 44.5473H46.6292C46.4649 44.5466 46.3075 44.4559 46.1913 44.295C46.0751 44.1342 46.0097 43.9162 46.0092 43.6886V43.1162H51.8627C52.0274 43.1155 52.1852 43.0244 52.3014 42.8628C52.4176 42.7012 52.4829 42.4824 52.4827 42.2543V26.9827H53.0015C53.1654 26.9843 53.3223 27.0753 53.4379 27.2361C53.5536 27.3969 53.6188 27.6144 53.6193 27.8414Z" fill="#DEE6F1"/>
<path d="M52.9852 44.7282H46.4431C46.2736 44.7277 46.1086 44.6533 45.9714 44.5157C45.8657 44.4115 45.7795 44.2739 45.72 44.1143C45.6604 43.9548 45.6292 43.7778 45.6289 43.5982V27.5106C45.6287 27.3524 45.6529 27.1961 45.6998 27.0519C45.7639 26.853 45.8682 26.684 46 26.5653C46.1319 26.4466 46.2858 26.3834 46.4431 26.3832H52.9857C53.1483 26.3844 53.307 26.4527 53.4415 26.5793C53.576 26.7058 53.6803 26.885 53.7411 27.0939L53.7639 27.1585V27.1811C53.7878 27.2878 53.7999 27.3989 53.7998 27.5106V43.5982C53.799 43.8694 53.7279 44.1312 53.5994 44.336C53.471 44.5407 53.2938 44.6749 53.1 44.714C53.062 44.7226 53.0237 44.7274 52.9852 44.7282ZM46.4431 27.163C46.3937 27.1629 46.3453 27.1827 46.3039 27.22C46.2625 27.2573 46.2298 27.3104 46.2098 27.373C46.1952 27.4176 46.1877 27.4661 46.1879 27.5151V43.6027C46.1881 43.6589 46.198 43.7141 46.2168 43.7639C46.2355 43.8136 46.2626 43.8565 46.2956 43.8889C46.3384 43.9312 46.3896 43.9538 46.4421 43.9536H52.9848C52.9959 43.9547 53.0072 43.9547 53.0183 43.9536C53.0793 43.9419 53.1352 43.9002 53.1757 43.8361C53.2162 43.772 53.2387 43.6899 53.239 43.6047V27.5171C53.2391 27.4783 53.2344 27.4399 53.225 27.4034L53.2031 27.3387C53.1806 27.2863 53.1486 27.2427 53.1104 27.2124C53.0721 27.1821 53.0288 27.1659 52.9848 27.1656L46.4431 27.163Z" fill="#426572"/>
<path d="M47.4387 32.5029H52.0894V33.2782H47.4387V32.5029Z" fill="#426572"/>
<path d="M47.4387 30.356H52.0894V31.1313H47.4387V30.356Z" fill="#426572"/>
<path d="M47.4387 34.9361H52.0894V35.7114H47.4387V34.9361Z" fill="#426572"/>
<path d="M37.974 36.5358H45.1745C45.3546 36.5358 45.3551 36.1482 45.1745 36.1482H37.974C37.7939 36.1482 37.7935 36.5358 37.974 36.5358Z" fill="white"/>
<path d="M35.19 36.5358H37.0642C37.2443 36.5358 37.2448 36.1482 37.0642 36.1482H35.19C35.01 36.1482 35.0095 36.5358 35.19 36.5358Z" fill="white"/>
<defs>
<linearGradient id="paint0_linear_116_1366" x1="0.0615969" y1="23.9823" x2="58.535" y2="23.9823" gradientUnits="userSpaceOnUse">
<stop stop-color="#C5E9FA"/>
<stop offset="1" stop-color="#C4F4EA"/>
</linearGradient>
</defs>
</svg>
